<svg xmlns="http://www.w3.org/2000/svg" width="25.357" height="23.5" viewBox="0 0 25.357 23.5">
  <g id="Grupo_551" data-name="Grupo 551" transform="translate(-7120 -2462)">
    <path id="Unión_8" data-name="Unión 8" d="M6.319,23.5l.7-16.015A4.256,4.256,0,0,1,.334,5.908a4.229,4.229,0,0,1-.248-.8,4.294,4.294,0,0,1,0-1.714,4.229,4.229,0,0,1,.64-1.521A4.265,4.265,0,0,1,2.6.334,4.23,4.23,0,0,1,3.4.086,4.283,4.283,0,0,1,4.253,0H21.121a4.287,4.287,0,0,1,.841.086,4.23,4.23,0,0,1,1.521.64A4.265,4.265,0,0,1,25.023,2.6a4.234,4.234,0,0,1,.248.8,4.294,4.294,0,0,1,0,1.714,4.229,4.229,0,0,1-.64,1.521A4.265,4.265,0,0,1,22.76,8.171a4.229,4.229,0,0,1-.8.248,4.294,4.294,0,0,1-1.714,0,4.23,4.23,0,0,1-1.521-.64,4.274,4.274,0,0,1-.4-.3L19.012,23.5Zm9.807-.7h2.15l-.71-16.187a4.236,4.236,0,0,1-.713-2.358,4.3,4.3,0,0,1,.036-.555H15.712Zm-3.208,0H15.4l-.427-19.1H12.918Zm-2.99,0H12.25V3.7H10.374Zm-2.839,0H9.2L9.638,3.71H8.471a4.3,4.3,0,0,1-.052,1.4,4.228,4.228,0,0,1-.6,1.468ZM17.839,2.963a3.535,3.535,0,0,0-.182.606,3.587,3.587,0,0,0,0,1.432,3.533,3.533,0,0,0,.534,1.27,3.562,3.562,0,0,0,1.563,1.287,3.532,3.532,0,0,0,.667.207,3.587,3.587,0,0,0,1.432,0,3.533,3.533,0,0,0,1.27-.534,3.562,3.562,0,0,0,1.287-1.563A3.535,3.535,0,0,0,24.616,5a3.587,3.587,0,0,0,0-1.432,3.533,3.533,0,0,0-.534-1.27,3.562,3.562,0,0,0-1.563-1.287A3.532,3.532,0,0,0,21.852.8a3.579,3.579,0,0,0-.716-.072H4.269a3.583,3.583,0,0,0-.7.072,3.533,3.533,0,0,0-1.27.534A3.562,3.562,0,0,0,1.012,2.9,3.534,3.534,0,0,0,.8,3.569,3.587,3.587,0,0,0,.8,5a3.533,3.533,0,0,0,.534,1.27A3.562,3.562,0,0,0,2.9,7.557a3.532,3.532,0,0,0,.667.207A3.587,3.587,0,0,0,5,7.764a3.533,3.533,0,0,0,1.27-.534A3.562,3.562,0,0,0,7.557,5.667,3.532,3.532,0,0,0,7.764,5a3.587,3.587,0,0,0,0-1.432,3.536,3.536,0,0,0-.182-.606h.36l-.005-.011h9.516l-.005.011Z" transform="translate(7120 2462)" fill="#ffffff"/>
    <path id="Unión_9" data-name="Unión 9" d="M19.591,6.142a2.433,2.433,0,0,1-2.527-2.466,2.244,2.244,0,0,1,2.279-2.333,1.691,1.691,0,0,1,1.9,1.635,1.488,1.488,0,0,1-1.6,1.642A1.361,1.361,0,0,1,18.4,3.227c0-.353.125-.442.252-.46a.372.372,0,0,1,.427.417.689.689,0,0,0,.659.742.814.814,0,0,0,.84-.92,1.013,1.013,0,0,0-1.154-.969,1.559,1.559,0,0,0-1.675,1.67,1.789,1.789,0,0,0,2.048,1.72,2.269,2.269,0,0,0,1.888-2.809A2.275,2.275,0,0,0,19.421.707H3.01A2.275,2.275,0,0,0,.748,2.618,2.269,2.269,0,0,0,2.637,5.427a1.789,1.789,0,0,0,2.048-1.72A1.559,1.559,0,0,0,3.01,2.038a1.013,1.013,0,0,0-1.154.969.814.814,0,0,0,.84.92.689.689,0,0,0,.659-.742.372.372,0,0,1,.427-.417c.127.018.248.107.252.46A1.362,1.362,0,0,1,2.789,4.621a1.488,1.488,0,0,1-1.6-1.642,1.691,1.691,0,0,1,1.9-1.635A2.244,2.244,0,0,1,5.367,3.677,2.433,2.433,0,0,1,2.84,6.142a2.946,2.946,0,0,1-2.84-3A3.042,3.042,0,0,1,3.01,0h16.41a3.042,3.042,0,0,1,3.01,3.144,2.946,2.946,0,0,1-2.83,3Z" transform="translate(7121.475 2463.168)" fill="#ffffff"/>
  </g>
</svg>
